<?xml version="1.0" encoding="UTF-8" standalone="no"?><!DOCTYPE svg PUBLIC "-//W3C//DTD SVG 1.1//EN" "http://www.w3.org/Graphics/SVG/1.1/DTD/svg11.dtd"><svg width="100%" height="100%" viewBox="0 0 3334 2500" version="1.1" xmlns="http://www.w3.org/2000/svg" xmlns:xlink="http://www.w3.org/1999/xlink" xml:space="preserve" xmlns:serif="http://www.serif.com/" style="fill-rule:evenodd;clip-rule:evenodd;stroke-linecap:round;stroke-linejoin:round;stroke-miterlimit:1.5;"><g><g><path d="M2650.26,179.979l108.784,53.968" style="fill:none;stroke:#f3f3f3;stroke-width:18.75px;"/><path d="M2677.66,261.355l53.968,-108.784" style="fill:none;stroke:#f3f3f3;stroke-width:18.75px;"/></g><g><path d="M2678.16,163.247l108.785,53.968" style="fill:none;stroke:#95ffd0;stroke-width:18.75px;"/><path d="M2705.57,244.624l53.967,-108.785" style="fill:none;stroke:#95ffd0;stroke-width:18.75px;"/></g></g><g id="freepik--background-simple--inject-78"><path d="M1795.73,778.762c-0,-0 -101.681,262.59 41.212,527.005c142.893,264.414 437.213,404.097 672.779,523.54c235.566,119.442 480.176,61.271 596.409,-134.359c116.233,-195.63 -43.182,-335.277 -43.401,-614.243c-0.218,-278.967 41.76,-352.82 -109.412,-588.495c-151.172,-235.675 -521.753,-287.865 -801.996,-113.06c-280.242,174.805 -355.591,399.612 -355.591,399.612Z" style="fill:#fff;fill-opacity:0.7;fill-rule:nonzero;"/><path d="M1799.63,1743.67l770.229,-0c3.1,-4.96 6.237,-9.92 9.446,-14.771c82.862,-126.116 215.544,-216.054 360.443,-258.25c64.918,-18.892 135.234,-30.125 187.387,-73.161c53.685,-44.239 78.34,-114.847 88.989,-183.595c12.947,-83.226 5.945,-176.555 -50.549,-239.03c-66.34,-73.343 -177.504,-81.586 -263.94,-129.654c-148.764,-82.789 -206.425,-271.307 -341.769,-374.593c-85.524,-65.247 -200.918,-90.521 -304.349,-76.224c-146.577,20.314 -284.474,118.53 -325.868,262.59c-11.9,41.958 -16.15,85.717 -12.546,129.18c6.601,85.889 25.092,172.873 7.659,257.23c-19.22,92.964 -79.689,171.413 -115.832,259.272c-45.005,109.412 -51.059,231.955 -31.985,348.589c5.105,31.357 12.691,62.26 22.685,92.417Z" style="fill:#34d399;fill-rule:nonzero;"/><path d="M1799.63,1743.67l770.229,-0c3.1,-4.96 6.237,-9.92 9.446,-14.771c82.862,-126.116 215.544,-216.054 360.443,-258.25c64.918,-18.892 135.234,-30.125 187.387,-73.161c53.685,-44.239 78.34,-114.847 88.989,-183.595c12.947,-83.226 5.945,-176.555 -50.549,-239.03c-66.34,-73.343 -177.504,-81.586 -263.94,-129.654c-148.764,-82.789 -206.425,-271.307 -341.769,-374.593c-85.524,-65.247 -200.918,-90.521 -304.349,-76.224c-146.577,20.314 -284.474,118.53 -325.868,262.59c-11.9,41.958 -16.15,85.717 -12.546,129.18c6.601,85.889 25.092,172.873 7.659,257.23c-19.22,92.964 -79.689,171.413 -115.832,259.272c-45.005,109.412 -51.059,231.955 -31.985,348.589c5.105,31.357 12.691,62.26 22.685,92.417Z" style="fill:#fff;fill-opacity:0.7;fill-rule:nonzero;"/></g><g id="freepik--Floor--inject-78"><path d="M1701.12,1743.67l1525.65,-0" style="fill:none;fill-rule:nonzero;stroke:#263238;stroke-width:3.65px;stroke-miterlimit:4;"/></g><g id="freepik--Graphics--inject-78"><path d="M2565.52,582.913l0,-57.259l-42.889,-3.648c-2.508,-8.954 -6.057,-17.584 -10.577,-25.712l27.681,-32.823l-40.482,-40.483l-32.824,27.681c-8.059,-4.536 -16.629,-8.099 -25.53,-10.613l-3.647,-42.889l-57.733,-0l-3.647,42.889c-8.901,2.514 -17.471,6.077 -25.53,10.613l-32.824,-27.681l-40.483,40.483l27.682,32.823c-4.52,8.128 -8.069,16.758 -10.577,25.712l-42.89,3.648l0,57.259l42.89,3.647c2.521,8.892 6.07,17.46 10.577,25.53l-27.682,32.823l40.483,40.483l32.824,-27.681c8.059,4.537 16.629,8.099 25.53,10.613l3.647,42.89l57.259,-0l3.647,-42.89c8.96,-2.51 17.591,-6.073 25.712,-10.613l32.824,27.681l40.483,-40.483l-27.682,-32.823c4.507,-8.07 8.056,-16.638 10.577,-25.53l43.181,-3.647Zm-157.189,37.893c-36.494,0 -66.523,-30.029 -66.523,-66.523c-0,-36.493 30.029,-66.523 66.523,-66.523c36.493,0 66.523,30.03 66.523,66.523c-0.02,36.5 -30.06,66.523 -66.56,66.523c-0.036,0 -0.073,0 -0.109,0l0.146,0Z" style="fill:none;fill-rule:nonzero;stroke:#263238;stroke-width:3.65px;stroke-miterlimit:4;"/><path d="M3180.75,1142.56l0,-27.426l-20.569,-1.787c-1.211,-4.29 -2.912,-8.426 -5.07,-12.327l13.276,-15.792l-19.33,-19.403l-15.755,13.276c-3.894,-2.173 -8.032,-3.875 -12.327,-5.07l-1.788,-20.569l-27.462,-0l-1.751,20.569c-4.298,1.189 -8.437,2.891 -12.327,5.07l-15.792,-13.276l-19.402,19.403l13.275,15.792c-2.184,3.892 -3.898,8.03 -5.106,12.327l-20.569,1.787l-0,27.426l20.569,1.787c1.208,4.297 2.922,8.435 5.106,12.327l-13.385,15.646l19.403,19.403l15.792,-13.275c3.89,2.179 8.029,3.881 12.327,5.069l1.75,20.57l27.463,-0l1.787,-20.57c4.296,-1.195 8.434,-2.897 12.327,-5.069l15.756,13.275l19.439,-19.403l-13.276,-15.791c2.158,-3.901 3.859,-8.038 5.07,-12.328l20.569,-1.641Zm-75.385,18.236c-0.012,-0 -0.024,-0 -0.036,-0c-17.507,-0 -31.913,-14.406 -31.913,-31.912c0,-17.507 14.406,-31.912 31.913,-31.912c17.506,-0 31.912,14.405 31.912,31.912c-0.02,17.492 -14.42,31.875 -31.912,31.875c-0.013,0 -0.025,0 -0.037,0l0.073,0.037Z" style="fill:none;fill-rule:nonzero;stroke:#263238;stroke-width:3.65px;stroke-miterlimit:4;"/><path d="M3160,642.762c1.277,-5.527 1.922,-11.182 1.922,-16.854c-0,-41.075 -33.8,-74.875 -74.875,-74.875c-6.598,-0 -13.167,0.872 -19.537,2.594c-12.72,-22.556 -36.687,-36.556 -62.582,-36.556c-37.701,0 -69.318,29.675 -71.704,67.301c-3.631,-0.695 -7.319,-1.044 -11.015,-1.044c-29.711,-0 -54.965,22.578 -58.28,52.103c-16.622,1.749 -29.389,15.929 -29.389,32.644c-0,16.988 13.188,31.312 30.119,32.712l274.553,-0c17.915,-0.132 32.583,-14.908 32.583,-32.823c-0,-9.728 -4.325,-18.97 -11.795,-25.202Z" style="fill:none;fill-rule:nonzero;stroke:#263238;stroke-width:3.65px;stroke-miterlimit:4;"/><path d="M3009.12,675.695l0,75.677" style="fill:none;fill-rule:nonzero;stroke:#263238;stroke-width:3.65px;stroke-miterlimit:4;"/><path d="M3009.12,630.325l0,30.235" style="fill:none;fill-rule:nonzero;stroke:#263238;stroke-width:3.65px;stroke-miterlimit:4;"/><path d="M3009.12,602.024l0,16.193" style="fill:none;fill-rule:nonzero;stroke:#263238;stroke-width:3.65px;stroke-miterlimit:4;"/><path d="M2994.82,742.546l14.296,17.689l14.297,-17.689" style="fill:none;fill-rule:nonzero;stroke:#263238;stroke-width:3.65px;stroke-miterlimit:4;"/><path d="M2323.5,1530.28c1.27,-5.515 1.912,-11.155 1.912,-16.814c-0,-41.095 -33.817,-74.911 -74.912,-74.911c-6.594,-0 -13.16,0.871 -19.526,2.59c-12.707,-22.57 -36.676,-36.583 -62.576,-36.583c-37.719,0 -69.338,29.718 -71.674,67.364c-3.606,-0.69 -7.269,-1.044 -10.941,-1.058c-29.725,-0.022 -55.01,22.545 -58.354,52.081c-16.629,1.741 -29.405,15.925 -29.405,32.645c-0,16.981 13.176,31.301 30.098,32.711l274.809,-0c17.873,-0.191 32.474,-14.948 32.474,-32.822c0,-9.729 -4.325,-18.971 -11.795,-25.203l-0.11,-0Z" style="fill:none;fill-rule:nonzero;stroke:#263238;stroke-width:3.65px;stroke-miterlimit:4;"/><path d="M2172.51,1574.05l-0,-75.641" style="fill:none;fill-rule:nonzero;stroke:#263238;stroke-width:3.65px;stroke-miterlimit:4;"/><path d="M2172.51,1619.45l-0,-30.271" style="fill:none;fill-rule:nonzero;stroke:#263238;stroke-width:3.65px;stroke-miterlimit:4;"/><path d="M2172.51,1647.75l-0,-16.193" style="fill:none;fill-rule:nonzero;stroke:#263238;stroke-width:3.65px;stroke-miterlimit:4;"/><path d="M2186.81,1507.23l-14.296,-17.688l-14.297,17.688" style="fill:none;fill-rule:nonzero;stroke:#263238;stroke-width:3.65px;stroke-miterlimit:4;"/></g><g id="freepik--Window--inject-78"><path d="M1743.03,570.185l917.062,-0c8.483,-0 15.463,6.98 15.463,15.463l0,43.255l-947.988,-0l-0,-43.255c-0,-8.483 6.98,-15.463 15.463,-15.463Z" style="fill:#34d399;fill-rule:nonzero;stroke:#263238;stroke-width:3.65px;stroke-miterlimit:4;"/><rect x="1769.07" y="639.735" width="958.128" height="674.238" style="fill:#fff;stroke:#263238;stroke-width:3.65px;stroke-miterlimit:4;"/><path d="M2741.86,599.507c0,8.003 -6.585,14.589 -14.588,14.589c-8.003,-0 -14.588,-6.586 -14.588,-14.589c-0,-8.003 6.585,-14.588 14.588,-14.588c8.003,-0 14.588,6.585 14.588,14.588Z" style="fill:#fff;fill-rule:nonzero;stroke:#263238;stroke-width:3.65px;stroke-miterlimit:4;"/><path d="M2690.21,599.507c0,8.003 -6.585,14.589 -14.588,14.589c-8.003,-0 -14.588,-6.586 -14.588,-14.589c-0,-8.003 6.585,-14.588 14.588,-14.588c8.003,-0 14.588,6.585 14.588,14.588Z" style="fill:#fff;fill-rule:nonzero;stroke:#263238;stroke-width:3.65px;stroke-miterlimit:4;"/><path d="M2638.46,599.507c0,8.003 -6.585,14.589 -14.588,14.589c-8.003,-0 -14.588,-6.586 -14.588,-14.589c-0,-8.003 6.585,-14.588 14.588,-14.588c8.003,-0 14.588,6.585 14.588,14.588Z" style="fill:#fff;fill-rule:nonzero;stroke:#263238;stroke-width:3.65px;stroke-miterlimit:4;"/><path d="M2698.16,668.656l-37.93,0" style="fill:none;fill-rule:nonzero;stroke:#263238;stroke-width:7.29px;stroke-miterlimit:4;"/><path d="M2698.16,684.047l-37.93,-0" style="fill:none;fill-rule:nonzero;stroke:#263238;stroke-width:7.29px;stroke-miterlimit:4;"/><path d="M2698.16,699.438l-37.93,-0" style="fill:none;fill-rule:nonzero;stroke:#263238;stroke-width:7.29px;stroke-miterlimit:4;"/><path d="M1835.41,1066.48l287.136,-0" style="fill:none;fill-rule:nonzero;stroke:#263238;stroke-width:7.29px;stroke-miterlimit:4;"/><path d="M1835.41,1089.13l287.136,0" style="fill:none;fill-rule:nonzero;stroke:#263238;stroke-width:7.29px;stroke-miterlimit:4;"/><path d="M1835.41,1112.18l226.412,-0" style="fill:none;fill-rule:nonzero;stroke:#263238;stroke-width:7.29px;stroke-miterlimit:4;"/><path d="M2444.29,647.321l0,1.823" style="fill:none;fill-rule:nonzero;stroke:#263238;stroke-width:3.65px;stroke-miterlimit:4;"/><path d="M2444.29,660.085l0,635.433" style="fill:none;fill-rule:nonzero;stroke:#263238;stroke-width:3.65px;stroke-miterlimit:4;stroke-dasharray:3.64,10.92;"/><path d="M2444.29,1300.99l0,1.823" style="fill:none;fill-rule:nonzero;stroke:#263238;stroke-width:3.65px;stroke-miterlimit:4;"/><path d="M1780.59,1162.76l1.824,0" style="fill:none;fill-rule:nonzero;stroke:#263238;stroke-width:3.65px;stroke-miterlimit:4;"/><path d="M1793.32,1162.76l911.919,0" style="fill:none;fill-rule:nonzero;stroke:#263238;stroke-width:3.65px;stroke-miterlimit:4;stroke-dasharray:3.64,10.92;"/><path d="M2710.71,1162.76l1.824,0" style="fill:none;fill-rule:nonzero;stroke:#263238;stroke-width:3.65px;stroke-miterlimit:4;"/><rect x="2438.02" y="1156.45" width="12.582" height="12.582" style="fill:#fff;stroke:#263238;stroke-width:3.65px;stroke-miterlimit:4;"/><path d="M2394.07,1041.9l-167.985,0" style="fill:none;fill-rule:nonzero;stroke:#263238;stroke-width:3.65px;stroke-miterlimit:4;"/><path d="M2397.32,1119.58c-0,-0 -0,-78.085 -87.239,-78.085c-87.238,0 -87.384,78.085 -87.384,78.085" style="fill:none;fill-rule:nonzero;stroke:#263238;stroke-width:3.65px;stroke-miterlimit:4;"/><circle cx="2397.32" cy="1119.58" r="7.367" style="fill:#34d399;stroke:#263238;stroke-width:3.65px;stroke-miterlimit:4;"/><path d="M2215.4,1119.58c-0,-4.002 3.292,-7.295 7.294,-7.295c4.001,0 7.294,3.293 7.294,7.295c-0,4.001 -3.293,7.294 -7.294,7.294c-4.002,-0 -7.294,-3.293 -7.294,-7.294Z" style="fill:#34d399;fill-rule:nonzero;stroke:#263238;stroke-width:3.65px;stroke-miterlimit:4;"/><rect x="2390.86" y="1035.04" width="12.911" height="12.911" style="fill:#34d399;stroke:#263238;stroke-width:3.65px;stroke-miterlimit:4;"/><rect x="2303.62" y="1035.04" width="12.911" height="12.911" style="fill:#34d399;stroke:#263238;stroke-width:3.65px;stroke-miterlimit:4;"/><rect x="2216.38" y="1035.04" width="12.911" height="12.911" style="fill:#34d399;stroke:#263238;stroke-width:3.65px;stroke-miterlimit:4;"/><path d="M1939.79,807.136l-0,-25.821l-19.293,-1.641c-1.146,-4.036 -2.749,-7.927 -4.778,-11.598l12.473,-14.807l-18.235,-18.236l-14.844,12.473c-3.658,-2.056 -7.553,-3.66 -11.598,-4.777l-1.677,-19.33l-25.749,-0l-1.678,19.33c-4.035,1.112 -7.918,2.717 -11.561,4.777l-14.844,-12.473l-18.235,18.236l12.473,14.807c-2.044,3.664 -3.648,7.557 -4.778,11.598l-19.329,1.641l-0,25.821l19.329,1.641c1.136,4.039 2.74,7.931 4.778,11.598l-12.473,14.807l18.235,18.236l14.844,-12.473c3.62,2.055 7.479,3.659 11.488,4.777l1.678,19.33l25.785,-0l1.678,-19.33c4.032,-1.12 7.914,-2.724 11.561,-4.777l14.844,12.473l18.235,-18.236l-12.473,-14.807c2.023,-3.674 3.626,-7.565 4.778,-11.598l19.366,-1.641Zm-70.863,17.069c-16.446,-0 -29.979,-13.534 -29.979,-29.98c-0,-16.446 13.533,-29.979 29.979,-29.979c16.446,0 29.979,13.533 29.979,29.979c-0,16.446 -13.533,29.98 -29.979,29.98Z" style="fill:#34d399;fill-rule:nonzero;stroke:#263238;stroke-width:3.65px;stroke-miterlimit:4;"/><path d="M2027.47,864.979l-0,-17.652l-13.239,-1.167c-0.762,-2.758 -1.851,-5.415 -3.246,-7.914l8.534,-10.139l-12.509,-12.473l-10.139,8.534c-2.505,-1.391 -5.16,-2.492 -7.914,-3.282l-1.131,-13.276l-17.652,0l-1.167,13.239c-2.754,0.79 -5.409,1.891 -7.914,3.283l-10.139,-8.535l-12.51,12.473l8.571,10.139c-1.421,2.49 -2.524,5.149 -3.282,7.915l-13.239,1.167l-0,17.652l13.239,1.13c0.751,2.768 1.854,5.427 3.282,7.914l-8.571,10.212l12.51,12.473l10.139,-8.534c2.505,1.391 5.16,2.493 7.914,3.282l1.167,13.203l17.652,-0l1.131,-13.203c2.754,-0.789 5.409,-1.891 7.914,-3.282l10.139,8.534l12.509,-12.473l-8.352,-10.175c1.401,-2.496 2.492,-5.154 3.246,-7.914l13.057,-1.131Zm-48.47,11.671c-0.012,-0 -0.024,-0 -0.036,-0c-11.265,-0 -20.533,-9.269 -20.533,-20.533c-0,-11.265 9.268,-20.534 20.533,-20.534c11.264,0 20.533,9.269 20.533,20.534c-0,0.012 -0,0.024 -0,0.036c-0.02,11.237 -9.26,20.477 -20.497,20.497Z" style="fill:#34d399;fill-rule:nonzero;stroke:#263238;stroke-width:3.65px;stroke-miterlimit:4;"/><path d="M2480.32,1205.65l141.252,-0" style="fill:none;fill-rule:nonzero;stroke:#263238;stroke-width:7.29px;stroke-miterlimit:4;"/><path d="M2480.32,1228.3l141.252,0" style="fill:none;fill-rule:nonzero;stroke:#263238;stroke-width:7.29px;stroke-miterlimit:4;"/><path d="M2480.32,1251.35l80.528,-0" style="fill:none;fill-rule:nonzero;stroke:#263238;stroke-width:7.29px;stroke-miterlimit:4;"/><path d="M2294.21,1260.76l-74.364,0c-10.004,0 -18.235,-8.231 -18.235,-18.235c-0,-10.004 8.231,-18.235 18.235,-18.235l74.364,-0c10.004,-0 18.236,8.231 18.236,18.235c-0,10.004 -8.232,18.235 -18.236,18.235Z" style="fill:#34d399;fill-rule:nonzero;stroke:#263238;stroke-width:3.65px;stroke-miterlimit:4;"/><path d="M2432.8,1260.76l-74.364,0c-10.004,0 -18.236,-8.231 -18.236,-18.235c0,-10.004 8.232,-18.235 18.236,-18.235l74.364,-0c10.003,-0 18.235,8.231 18.235,18.235c0,10.004 -8.232,18.235 -18.235,18.235Z" style="fill:#34d399;fill-rule:nonzero;stroke:#263238;stroke-width:3.65px;stroke-miterlimit:4;"/><rect x="2490.65" y="869.501" width="157.7" height="157.7" style="fill:#fff;stroke:#263238;stroke-width:3.65px;stroke-miterlimit:4;"/><path d="M2490.65,869.501l157.7,157.701" style="fill:none;fill-rule:nonzero;stroke:#263238;stroke-width:3.65px;stroke-miterlimit:4;"/><path d="M2648.35,869.501l-157.7,157.701" style="fill:none;fill-rule:nonzero;stroke:#263238;stroke-width:3.65px;stroke-miterlimit:4;"/><path d="M2552.5,690.466l0,36.799l-16.229,16.229l-36.799,0l-0,-53.028l53.028,-0Z" style="fill:#fff;fill-rule:nonzero;stroke:#263238;stroke-width:3.65px;stroke-miterlimit:4;"/><path d="M2552.5,727.265l-16.229,16.229l-0,-16.229l16.229,-0Z" style="fill:#fff;fill-rule:nonzero;stroke:#263238;stroke-width:3.65px;stroke-miterlimit:4;"/><path d="M1988.55,975.048l0,36.799l-16.229,16.266l-36.799,0l-0,-53.065l53.028,0Z" style="fill:#fff;fill-rule:nonzero;stroke:#263238;stroke-width:3.65px;stroke-miterlimit:4;"/><path d="M1988.55,1011.85l-16.229,16.266l-0,-16.266l16.229,0Z" style="fill:#fff;fill-rule:nonzero;stroke:#263238;stroke-width:3.65px;stroke-miterlimit:4;"/><path d="M1788.18,1201.79l0,36.799l-16.229,16.23l-36.836,-0l0,-53.029l53.065,-0Z" style="fill:#fff;fill-rule:nonzero;stroke:#263238;stroke-width:3.65px;stroke-miterlimit:4;"/><path d="M1788.18,1238.59l-16.229,16.23l-0,-16.23l16.229,0Z" style="fill:#fff;fill-rule:nonzero;stroke:#263238;stroke-width:3.65px;stroke-miterlimit:4;"/></g><g id="freepik--Screens--inject-78"><rect x="2623.91" y="775.808" width="195.703" height="122.652" style="fill:#263238;stroke:#263238;stroke-width:3.65px;stroke-miterlimit:4;"/><rect x="2623.91" y="775.808" width="195.703" height="18.637" style="fill:#34d399;stroke:#263238;stroke-width:3.65px;stroke-miterlimit:4;"/><path d="M2643.86,810.163l50.038,0" style="fill:none;fill-rule:nonzero;stroke:#fff;stroke-width:3.65px;stroke-miterlimit:4;"/><path d="M2668.88,824.132l86.582,-0" style="fill:none;fill-rule:nonzero;stroke:#fff;stroke-width:3.65px;stroke-miterlimit:4;"/><path d="M2657.83,837.152l25.493,-0" style="fill:none;fill-rule:nonzero;stroke:#fff;stroke-width:3.65px;stroke-miterlimit:4;"/><path d="M2668.88,852.506l58.317,-0" style="fill:none;fill-rule:nonzero;stroke:#fff;stroke-width:3.65px;stroke-miterlimit:4;"/><path d="M2643.86,866.438l50.038,-0" style="fill:none;fill-rule:nonzero;stroke:#fff;stroke-width:3.65px;stroke-miterlimit:4;"/><rect x="1887.89" y="1269.3" width="195.703" height="122.652" style="fill:#263238;stroke:#263238;stroke-width:3.65px;stroke-miterlimit:4;"/><rect x="1887.89" y="1269.3" width="195.703" height="18.637" style="fill:#34d399;stroke:#263238;stroke-width:3.65px;stroke-miterlimit:4;"/><path d="M1907.88,1303.69l50.001,-0" style="fill:none;fill-rule:nonzero;stroke:#fff;stroke-width:3.65px;stroke-miterlimit:4;"/><path d="M1932.86,1317.62l86.582,-0" style="fill:none;fill-rule:nonzero;stroke:#fff;stroke-width:3.65px;stroke-miterlimit:4;"/><path d="M1921.81,1330.64l25.493,-0" style="fill:none;fill-rule:nonzero;stroke:#fff;stroke-width:3.65px;stroke-miterlimit:4;"/><path d="M1932.86,1345.99l58.317,-0" style="fill:none;fill-rule:nonzero;stroke:#fff;stroke-width:3.65px;stroke-miterlimit:4;"/><path d="M1907.88,1359.96l50.001,0" style="fill:none;fill-rule:nonzero;stroke:#fff;stroke-width:3.65px;stroke-miterlimit:4;"/></g><g id="freepik--speech-bubble--inject-78"><path d="M2157.05,380.901l-179.802,-0c-4.354,0.019 -7.93,3.596 -7.95,7.95l-0,83.883c0.02,4.348 3.603,7.915 7.95,7.914l80.601,0l9.191,32.824l9.227,-32.824l80.783,0c4.348,0.001 7.931,-3.566 7.951,-7.914l-0,-83.883c-0.02,-4.354 -3.597,-7.931 -7.951,-7.95Z" style="fill:#34d399;fill-rule:nonzero;stroke:#263238;stroke-width:3.65px;stroke-miterlimit:4;"/><path d="M1999.13,404.898l135.854,0" style="fill:none;fill-rule:nonzero;stroke:#263238;stroke-width:7.29px;stroke-miterlimit:4;"/><path d="M1999.13,422.113l135.854,-0" style="fill:none;fill-rule:nonzero;stroke:#263238;stroke-width:7.29px;stroke-miterlimit:4;"/><path d="M1999.13,439.327l135.854,-0" style="fill:none;fill-rule:nonzero;stroke:#263238;stroke-width:7.29px;stroke-miterlimit:4;"/><path d="M1999.13,456.541l102.374,0" style="fill:none;fill-rule:nonzero;stroke:#263238;stroke-width:7.29px;stroke-miterlimit:4;"/></g><g id="freepik--Character--inject-78"><path d="M2451.99,977.492c-19.293,1.641 -43.765,-21.409 -43.765,-21.409c-0.817,0.845 -1.943,1.322 -3.118,1.322c-1.56,0 -3.005,-0.841 -3.775,-2.197c-3.136,-4.522 -16.74,-14.989 -17.506,-24.034c-0.766,-9.045 15.282,-23.706 15.282,-23.706c-12.364,3.355 -13.677,-3.903 -13.677,-3.903c0,0 20.825,-17.178 28.119,-17.652c2.845,-0.182 15.245,6.966 27.244,16.595c12.546,10.102 36.106,45.661 36.106,45.661c0,0 79.689,57.88 99.821,72.687c26.587,19.548 58.098,54.232 58.098,54.232c0,-0 105.766,47.704 134.943,73.927l-39.462,93.438c0,0 -96.174,-64.444 -105.766,-80.783c-9.591,-16.339 -19.22,-6.528 -28.848,-17.214c-9.628,-10.686 -18.856,-22.904 -18.856,-22.904c-17.124,-8.268 -32.665,-19.477 -45.916,-33.116c-22.467,-23.086 -42.27,-58.353 -54.707,-79.579c-6.439,-11.62 -14.604,-22.196 -24.217,-31.365Z" style="fill:#fff;fill-rule:nonzero;stroke:#263238;stroke-width:3.65px;stroke-miterlimit:4;"/><path d="M2457.86,963.852c0,-0 -28.702,-6.966 -31.182,-25.895c-1.096,-4.798 -3.197,-9.311 -6.164,-13.239c-2.967,-3.927 -26.77,-1.313 -25.092,-12.217l35.742,-3.173c13.007,4.997 23.966,14.222 31.109,26.186" style="fill:#fff;fill-rule:nonzero;stroke:#263238;stroke-width:3.65px;stroke-miterlimit:4;"/><path d="M2408.18,956.083c1.273,-2.363 1.698,-5.093 1.203,-7.731c-0.494,-2.639 7.878,-1.459 7.003,-8.425c-0,-0 11.671,-1.423 4.121,-15.209" style="fill:none;fill-rule:nonzero;stroke:#263238;stroke-width:3.65px;stroke-miterlimit:4;"/><path d="M2416.39,939.927c-0,-0 -15.719,-11.634 -17.47,-16.959" style="fill:none;fill-rule:nonzero;stroke:#263238;stroke-width:3.65px;stroke-miterlimit:4;"/><path d="M2409.39,948.352c0,-0 -16.74,-10.212 -17.032,-16.157" style="fill:none;fill-rule:nonzero;stroke:#263238;stroke-width:3.65px;stroke-miterlimit:4;"/><path d="M2413.22,895.906c-0,0 -5.325,9.556 -14.151,11.562" style="fill:none;fill-rule:nonzero;stroke:#263238;stroke-width:3.65px;stroke-miterlimit:4;"/><path d="M2410.55,899.626c2.799,1.462 5.439,3.21 7.878,5.216" style="fill:none;fill-rule:nonzero;stroke:#263238;stroke-width:3.65px;stroke-miterlimit:4;"/><path d="M3021.85,1222.65c-41.27,-17.465 -83.839,-31.683 -127.32,-42.525c-64.043,-14.989 -167.767,-28.374 -167.767,-28.374c0,-0 28.521,291.038 21.008,308.544c-7.513,17.506 -52.591,76.297 -52.591,76.297c-0,0 243.954,95.116 286.479,103.213c42.525,8.096 20.35,-139.502 20.35,-139.502c0,0 44.933,-187.606 19.841,-277.653Z" style="fill:#263238;fill-rule:nonzero;"/><path d="M2934.28,1191.39c-0,-0 5.799,10.941 -9.446,16.667c-39.498,14.588 -81.586,1.714 -77.1,-13.75c1.715,-5.908 11.489,0 10.942,-21.882c-0.269,-3.373 -1.173,-6.664 -2.663,-9.701c-2.786,-5.919 -6.145,-11.55 -10.029,-16.813c-4.216,-5.859 -8.732,-11.495 -13.531,-16.887c-4.799,-5.391 62.694,-40.118 109.194,0c-0.073,-0.182 -17.36,8.571 -7.367,62.366Z" style="fill:#fff;fill-rule:nonzero;stroke:#263238;stroke-width:3.65px;stroke-miterlimit:4;"/><path d="M3011.96,1709.76c-24.691,40.118 -149.968,59.119 -218.351,57.332c-68.383,-1.787 -265.144,-94.824 -278.492,-114.664c-12.364,-18.236 -42.744,-78.668 4.084,-115.175c3.973,-3.068 8.194,-5.801 12.619,-8.17c32.058,-17.36 245.267,37.383 245.267,37.383c0,-0 13.203,-8.352 18.053,-7.732c14.88,1.896 25.53,13.932 55.582,22.502c21.044,6.018 78.485,-17.104 115.175,2.772c4.072,2.177 7.827,4.902 11.16,8.097c34.283,32.751 59.557,77.428 34.903,117.655Z" style="fill:#34d399;fill-rule:nonzero;"/><g><clipPath id="_clip1"><path d="M3011.96,1709.76c-24.691,40.118 -149.968,59.119 -218.351,57.332c-68.383,-1.787 -265.144,-94.824 -278.492,-114.664c-12.364,-18.236 -42.744,-78.668 4.084,-115.175c3.973,-3.068 8.194,-5.801 12.619,-8.17c32.058,-17.36 245.267,37.383 245.267,37.383c0,-0 13.203,-8.352 18.053,-7.732c14.88,1.896 25.53,13.932 55.582,22.502c21.044,6.018 78.485,-17.104 115.175,2.772c4.072,2.177 7.827,4.902 11.16,8.097c34.283,32.751 59.557,77.428 34.903,117.655Z"/></clipPath><g clip-path="url(#_clip1)"><path d="M2965.9,1584c-37.601,-2.516 -71.118,5.361 -94.532,19.184c-27.755,16.412 -158.831,79.543 -158.831,79.543c0.291,-6.784 7.586,-20.46 7.586,-20.46c-12.328,-10.941 -44.568,-19.512 -44.568,-19.512c-24.982,-21.336 -124.001,-84.977 -156.351,-105.51c3.973,-3.068 8.194,-5.801 12.619,-8.17c32.058,-17.36 245.267,37.383 245.267,37.383c0,-0 13.203,-8.352 18.053,-7.732c14.88,1.896 25.53,13.932 55.582,22.502c21.153,6.018 78.485,-17.104 115.175,2.772Z" style="fill-opacity:0.21;fill-rule:nonzero;"/></g></g><path d="M3011.96,1709.76c-24.691,40.118 -149.968,59.119 -218.351,57.332c-68.383,-1.787 -265.144,-94.824 -278.492,-114.664c-12.364,-18.236 -42.744,-78.668 4.084,-115.175c3.973,-3.068 8.194,-5.801 12.619,-8.17c32.058,-17.36 245.267,37.383 245.267,37.383c0,-0 13.203,-8.352 18.053,-7.732c14.88,1.896 25.53,13.932 55.582,22.502c21.044,6.018 78.485,-17.104 115.175,2.772c4.072,2.177 7.827,4.902 11.16,8.097c34.283,32.751 59.557,77.428 34.903,117.655Z" style="fill:none;fill-rule:nonzero;stroke:#263238;stroke-width:3.65px;stroke-miterlimit:4;"/><path d="M2973.52,1746.08l3.136,13.75c0,-0 -8.388,23.779 -45.26,27.681c-36.872,3.902 -58.718,12.035 -76.589,13.093c-9.342,0.737 -18.732,0.591 -28.046,-0.438l-3.647,-5.397l150.406,-48.689Z" style="fill:#fff;fill-rule:nonzero;stroke:#263238;stroke-width:3.65px;stroke-miterlimit:4;"/><path d="M2759.4,1744.62l63.897,50.148c30.797,-2.633 61.397,-7.213 91.615,-13.713c30.271,-7.003 56.712,-17.032 58.134,-30.818c2.225,-20.935 -20.168,-26.661 -46.755,-25.858c-4.96,-0 -10.066,0.51 -15.209,1.021c-42.561,4.559 -96.684,-18.928 -96.684,-18.928l-54.998,38.148Z" style="fill:#263238;fill-rule:nonzero;"/><g><clipPath id="_clip2"><path d="M2759.4,1744.62l63.897,50.148c30.797,-2.633 61.397,-7.213 91.615,-13.713c30.271,-7.003 56.712,-17.032 58.134,-30.818c2.225,-20.935 -20.168,-26.661 -46.755,-25.858c-4.96,-0 -10.066,0.51 -15.209,1.021c-42.561,4.559 -96.684,-18.928 -96.684,-18.928l-54.998,38.148Z"/></clipPath><g clip-path="url(#_clip2)"><path d="M2973.08,1749.73c-12.404,4.615 -24.307,10.48 -35.523,17.506c-11.216,7.026 -59.338,30.526 -150.552,-0.912l-27.608,-21.7l54.998,-38.185c-0,0 54.086,23.524 96.684,18.929c5.143,-0.548 10.249,-0.912 15.209,-1.022c26.405,-0.802 48.615,4.814 46.792,25.384Z" style="fill-opacity:0.21;fill-rule:nonzero;"/></g></g><path d="M2759.4,1744.62l63.897,50.148c30.797,-2.633 61.397,-7.213 91.615,-13.713c30.271,-7.003 56.712,-17.032 58.134,-30.818c2.225,-20.935 -20.168,-26.661 -46.755,-25.858c-4.96,-0 -10.066,0.51 -15.209,1.021c-42.561,4.559 -96.684,-18.928 -96.684,-18.928l-54.998,38.148Z" style="fill:none;fill-rule:nonzero;stroke:#263238;stroke-width:3.65px;stroke-miterlimit:4;"/><path d="M2818.96,1764.39c-11.525,1.86 1.13,25.53 16.74,18.236c15.61,-7.294 -5.215,-20.132 -16.74,-18.236Z" style="fill:#fff;fill-rule:nonzero;"/><g><clipPath id="_clip3"><path d="M2818.96,1764.39c-11.525,1.86 1.13,25.53 16.74,18.236c15.61,-7.294 -5.215,-20.132 -16.74,-18.236Z"/></clipPath><g clip-path="url(#_clip3)"><path d="M2840.58,1778.87c-8.348,-1.018 -16.638,-2.466 -24.837,-4.34c-2.188,-4.631 -1.677,-9.373 3.21,-10.139c9.665,-1.604 25.931,7.331 21.627,14.479Z" style="fill-opacity:0.14;fill-rule:nonzero;"/></g></g><path d="M2818.96,1764.39c-11.525,1.86 1.13,25.53 16.74,18.236c15.61,-7.294 -5.215,-20.132 -16.74,-18.236Z" style="fill:none;fill-rule:nonzero;stroke:#263238;stroke-width:3.65px;stroke-miterlimit:4;"/><path d="M2914.91,1781.02c30.271,-7.002 56.712,-17.032 58.134,-30.818c2.225,-20.934 -20.168,-26.66 -46.755,-25.858c-1.167,1.131 -26.952,26.041 -11.379,56.676Z" style="fill:#fff;fill-rule:nonzero;"/><g><clipPath id="_clip4"><path d="M2914.91,1781.02c30.271,-7.002 56.712,-17.032 58.134,-30.818c2.225,-20.934 -20.168,-26.66 -46.755,-25.858c-1.167,1.131 -26.952,26.041 -11.379,56.676Z"/></clipPath><g clip-path="url(#_clip4)"><path d="M2973.08,1749.73c-12.404,4.615 -24.307,10.48 -35.523,17.506c-7.994,3.696 -16.373,6.497 -24.982,8.352c-10.212,-28.083 12.619,-50.184 13.713,-51.242c26.405,-0.802 48.615,4.814 46.792,25.384Z" style="fill-opacity:0.21;fill-rule:nonzero;"/></g></g><path d="M2914.91,1781.02c30.271,-7.002 56.712,-17.032 58.134,-30.818c2.225,-20.934 -20.168,-26.66 -46.755,-25.858c-1.167,1.131 -26.952,26.041 -11.379,56.676Z" style="fill:none;fill-rule:nonzero;stroke:#263238;stroke-width:3.65px;stroke-miterlimit:4;"/><path d="M2893.32,1755.02l0.182,0c0.05,0.003 0.099,0.004 0.148,0.004c1.681,-0 3.078,-1.351 3.135,-3.031c1.033,-8.96 4.862,-17.371 10.941,-24.034c0.592,-0.589 0.926,-1.39 0.926,-2.225c-0,-0.835 -0.334,-1.636 -0.926,-2.225c-1.227,-1.206 -3.223,-1.206 -4.449,0c-7.15,7.755 -11.593,17.625 -12.656,28.12c-0.151,1.66 1.047,3.166 2.699,3.391Z" style="fill:#fff;fill-rule:nonzero;stroke:#263238;stroke-width:3.65px;stroke-miterlimit:4;"/><path d="M2880.67,1755.85l0.255,0c0.024,0.001 0.049,0.001 0.073,0.001c1.707,0 3.117,-1.394 3.136,-3.101c0.724,-9.106 4.097,-17.805 9.702,-25.019c0.577,-0.592 0.901,-1.388 0.901,-2.215c-0,-1.74 -1.433,-3.173 -3.173,-3.173c-1.045,0 -2.024,0.516 -2.615,1.376c-6.509,8.3 -10.385,18.363 -11.124,28.885c-0.065,1.657 1.194,3.093 2.845,3.246Z" style="fill:#fff;fill-rule:nonzero;stroke:#263238;stroke-width:3.65px;stroke-miterlimit:4;"/><path d="M2865.53,1754.18c0.101,0.009 0.203,0.014 0.304,0.014c1.617,0 2.982,-1.249 3.124,-2.859c0.985,-10.941 10.395,-25.275 10.504,-25.53c0.955,-1.454 0.562,-3.433 -0.875,-4.413c-1.443,-0.951 -3.411,-0.557 -4.377,0.875c-0.437,0.62 -10.43,15.647 -11.561,28.338c-0.018,0.137 -0.027,0.275 -0.027,0.413c0,1.641 1.273,3.025 2.908,3.162Z" style="fill:#fff;fill-rule:nonzero;stroke:#263238;stroke-width:3.65px;stroke-miterlimit:4;"/><path d="M2851.23,1752.68c0.278,0.036 0.56,0.036 0.838,0c1.514,-0.243 2.639,-1.563 2.639,-3.096c-0,-0.185 -0.017,-0.369 -0.049,-0.551c-2.225,-13.421 10.248,-24.91 10.358,-25.019c0.379,-0.536 0.583,-1.176 0.583,-1.833c-0,-1.741 -1.433,-3.173 -3.173,-3.173c-0.522,0 -1.035,0.129 -1.495,0.374c-0.62,0.547 -15.172,13.896 -12.364,30.782c0.274,1.309 1.34,2.316 2.663,2.516Z" style="fill:#fff;fill-rule:nonzero;stroke:#263238;stroke-width:3.65px;stroke-miterlimit:4;"/><path d="M2835.7,1748.92c0.338,0.054 0.683,0.054 1.021,-0c1.621,-0.396 2.668,-2.005 2.371,-3.647c-2.736,-11.963 9.045,-25.53 9.19,-25.53c1.13,-1.305 0.999,-3.304 -0.291,-4.449c-0.576,-0.519 -1.324,-0.806 -2.099,-0.806c-0.899,0 -1.756,0.387 -2.351,1.061c-0.583,0.656 -14.078,16.084 -10.613,31.255c0.41,1.199 1.508,2.037 2.772,2.116Z" style="fill:#fff;fill-rule:nonzero;stroke:#263238;stroke-width:3.65px;stroke-miterlimit:4;"/><path d="M2507.17,1725.51l-4.559,13.349c0,-0 5.835,24.545 42.088,32.277c36.252,7.731 57.113,18.235 74.619,21.08c9.215,1.696 18.568,2.526 27.937,2.48l4.194,-4.997l-144.279,-64.189Z" style="fill:#fff;fill-rule:nonzero;stroke:#263238;stroke-width:3.65px;stroke-miterlimit:4;"/><path d="M2720.12,1746.55l-68.785,43.145c-30.353,-5.847 -60.307,-13.607 -89.682,-23.232c-29.359,-10.139 -54.706,-22.904 -54.706,-36.762c0,-21.081 22.867,-24.399 49.236,-20.825c4.923,0.656 9.956,1.568 15.026,2.626c41.832,9.008 98.107,-8.681 98.107,-8.681l50.804,43.729Z" style="fill:#263238;fill-rule:nonzero;"/><g><clipPath id="_clip5"><path d="M2720.12,1746.55l-68.785,43.145c-30.353,-5.847 -60.307,-13.607 -89.682,-23.232c-29.359,-10.139 -54.706,-22.904 -54.706,-36.762c0,-21.081 22.867,-24.399 49.236,-20.825c4.923,0.656 9.956,1.568 15.026,2.626c41.832,9.008 98.107,-8.681 98.107,-8.681l50.804,43.729Z"/></clipPath><g clip-path="url(#_clip5)"><path d="M2720.12,1746.55l-40.447,25.53c-32.792,-10.186 -61.56,-30.441 -82.205,-57.88c24.38,-0.536 48.58,-4.326 71.957,-11.269l50.695,43.619Z" style="fill-opacity:0.21;fill-rule:nonzero;"/></g></g><path d="M2720.12,1746.55l-68.785,43.145c-30.353,-5.847 -60.307,-13.607 -89.682,-23.232c-29.359,-10.139 -54.706,-22.904 -54.706,-36.762c0,-21.081 22.867,-24.399 49.236,-20.825c4.923,0.656 9.956,1.568 15.026,2.626c41.832,9.008 98.107,-8.681 98.107,-8.681l50.804,43.729Z" style="fill:none;fill-rule:nonzero;stroke:#263238;stroke-width:3.65px;stroke-miterlimit:4;"/><path d="M2561.65,1766.43c-29.359,-10.139 -54.706,-22.904 -54.706,-36.763c0,-21.08 22.867,-24.399 49.236,-20.825c1.167,1.24 24.18,28.776 5.47,57.588Z" style="fill:#fff;fill-rule:nonzero;stroke:#263238;stroke-width:3.65px;stroke-miterlimit:4;"/><path d="M2585.87,1742.83l-0.182,0c-1.733,-0.116 -3.074,-1.62 -2.991,-3.355c-0.058,-9.002 -2.956,-17.76 -8.279,-25.019c-0.575,-0.592 -0.898,-1.386 -0.898,-2.212c0,-1.741 1.433,-3.173 3.173,-3.173c1.089,-0 2.105,0.561 2.685,1.482c6.293,8.42 9.673,18.666 9.629,29.177c-0.02,1.707 -1.43,3.1 -3.137,3.1Z" style="fill:#fff;fill-rule:nonzero;stroke:#263238;stroke-width:3.65px;stroke-miterlimit:4;"/><path d="M2598.34,1744.91l-0.292,-0c-1.729,-0.154 -3.027,-1.699 -2.881,-3.428c0.26,-9.115 -2.163,-18.108 -6.966,-25.858c-0.371,-0.536 -0.571,-1.172 -0.571,-1.824c0,-1.754 1.443,-3.197 3.197,-3.197c1.047,0 2.029,0.514 2.626,1.374c5.633,8.928 8.431,19.357 8.024,29.906c-0.077,1.671 -1.464,3.009 -3.137,3.027Z" style="fill:#fff;fill-rule:nonzero;stroke:#263238;stroke-width:3.65px;stroke-miterlimit:4;"/><path d="M2613.59,1744.91c-1.733,-0.039 -3.137,-1.476 -3.136,-3.21c0.218,-11.123 -7.659,-26.186 -7.769,-26.332c-0.798,-1.551 -0.192,-3.485 1.35,-4.303c1.541,-0.796 3.463,-0.188 4.267,1.349c0.365,0.657 8.716,16.631 8.498,29.396c-0.04,1.727 -1.483,3.12 -3.21,3.1Z" style="fill:#fff;fill-rule:nonzero;stroke:#263238;stroke-width:3.65px;stroke-miterlimit:4;"/><path d="M2627.96,1744.91l-0.839,-0c-1.668,-0.475 -2.653,-2.232 -2.188,-3.902c3.647,-13.094 -7.55,-25.858 -7.659,-25.968c-0.628,-0.598 -0.984,-1.429 -0.984,-2.296c-0,-1.741 1.432,-3.173 3.173,-3.173c0.985,-0 1.915,0.458 2.515,1.239c0.547,0.62 13.641,15.427 9.045,31.912c-0.44,1.311 -1.68,2.197 -3.063,2.188Z" style="fill:#fff;fill-rule:nonzero;stroke:#263238;stroke-width:3.65px;stroke-miterlimit:4;"/><path d="M2643.82,1742.83c-0.349,0.014 -0.698,-0.048 -1.021,-0.182c-1.281,-0.41 -2.156,-1.608 -2.156,-2.953c0,-0.361 0.063,-0.72 0.187,-1.059c3.975,-11.598 -6.346,-26.296 -6.419,-26.441c-0.522,-0.583 -0.811,-1.338 -0.811,-2.12c-0,-1.74 1.432,-3.173 3.173,-3.173c1.156,0 2.224,0.632 2.78,1.645c0.511,0.693 12.291,17.47 7.295,32.204c-0.473,1.256 -1.686,2.089 -3.028,2.079Z" style="fill:#fff;fill-rule:nonzero;stroke:#263238;stroke-width:3.65px;stroke-miterlimit:4;"/><path d="M2658.81,1759.94c11.27,3.1 -3.647,25.165 -18.564,16.412c-14.916,-8.753 7.331,-19.476 18.564,-16.412Z" style="fill:#fff;fill-rule:nonzero;stroke:#263238;stroke-width:3.65px;stroke-miterlimit:4;"/><path d="M2528.76,1642.79c16.886,23.67 66.96,49.82 116.707,71.374c8.897,14.736 19.391,28.447 31.292,40.884c30.708,31.584 43.218,13.895 43.218,13.895c-0,0 19.402,-2.188 48.032,-6.09c2.443,5.692 8.462,9.048 14.588,8.133c3.647,-0.584 10.942,-5.909 19.002,-12.948c72.322,-10.941 170.465,-29.176 196.943,-50.402" style="fill:#34d399;fill-rule:nonzero;stroke:#263238;stroke-width:3.65px;stroke-miterlimit:4;"/><path d="M2970.35,1597.72c-12.51,-13.749 -25.019,-14.369 -51.278,-12.509c-0,-0 -68.529,21.882 -116.343,50.658c-47.813,28.775 -117.545,59.302 -117.545,59.302c-0,-0 -21.263,-6.164 -36.07,-0c-0,-0 -10.394,0.802 -3.429,18.964" style="fill:none;fill-rule:nonzero;stroke:#263238;stroke-width:3.65px;stroke-miterlimit:4;"/><path d="M3002.15,1679.88c0,0 0.365,21.19 -29.687,35.851" style="fill:none;fill-rule:nonzero;stroke:#263238;stroke-width:3.65px;stroke-miterlimit:4;"/><path d="M2670.7,1591.48c-0,-0 47.412,34.282 56.931,56.894c9.318,3.928 18.317,8.574 26.915,13.896" style="fill:none;fill-rule:nonzero;stroke:#263238;stroke-width:3.65px;stroke-miterlimit:4;"/><path d="M2731.06,1619.96c3.477,9.852 4.059,20.498 1.678,30.672" style="fill:none;fill-rule:nonzero;stroke:#263238;stroke-width:3.65px;stroke-miterlimit:4;"/><path d="M2720.12,1597.72c2.583,3.758 4.852,7.723 6.783,11.853" style="fill:none;fill-rule:nonzero;stroke:#263238;stroke-width:3.65px;stroke-miterlimit:4;"/><path d="M2787.66,1594.58c-0,-0 15.865,21.226 19.803,38.44" style="fill:none;fill-rule:nonzero;stroke:#263238;stroke-width:3.65px;stroke-miterlimit:4;"/><path d="M2876.03,1722.81c5.901,-0.347 11.773,-1.078 17.579,-2.189" style="fill:none;fill-rule:nonzero;stroke:#263238;stroke-width:3.65px;stroke-miterlimit:4;"/><path d="M2727.2,1707.6c44.955,8.905 90.561,14.138 136.365,15.646" style="fill:none;fill-rule:nonzero;stroke:#263238;stroke-width:3.65px;stroke-miterlimit:4;"/><path d="M3048.1,1386c-0,-0 -8.571,149.53 -18.673,158.101c-10.103,8.571 -26.041,11.233 -56.202,13.75c-30.162,2.516 -163.572,10.686 -163.572,10.686l-14.37,-42.854c0,0 70.936,-7.294 102.411,-18.782c23.73,-8.113 48.008,-14.523 72.65,-19.184c24.641,-4.661 -5.982,-37.602 -5.982,-53.795l0,-76.151" style="fill:#fff;fill-rule:nonzero;stroke:#263238;stroke-width:3.65px;stroke-miterlimit:4;"/><path d="M3021.85,1222.65c32.495,20.023 42.087,66.304 30.854,165.104c-0,0 9.592,11.671 -4.595,17.506c-0,0 -53.139,-19.876 -77.829,-6.163c-24.691,13.713 -18.236,-18.929 -18.236,-18.929c0,0 -10.175,-90.885 12.327,-107.334" style="fill:#263238;fill-rule:nonzero;"/><path d="M2961.38,1258.94c-0,-0 -31.256,32.495 -3.647,114.628c-1.742,6.703 -2.961,13.532 -3.647,20.424c-0,5.507 7.549,8.352 7.549,8.352" style="fill:none;fill-rule:nonzero;stroke:#fff;stroke-width:3.65px;stroke-miterlimit:4;"/><path d="M2924.83,1313.97c-0,-0 2.261,40.118 27.134,57.514" style="fill:none;fill-rule:nonzero;stroke:#fff;stroke-width:3.65px;stroke-miterlimit:4;"/><path d="M2932.86,1220.83c-0,-0 -48.47,18.563 -87.02,-2.006c-22.867,-12.181 -13.458,-31.766 -13.458,-31.766" style="fill:none;fill-rule:nonzero;stroke:#fff;stroke-width:3.65px;stroke-miterlimit:4;"/><path d="M2584.3,1597.79l263.831,0c5.958,0.003 11.892,-0.77 17.651,-2.297l52.045,-13.641c1.475,-0.381 2.515,-1.721 2.516,-3.245c-0,-1.861 -1.531,-3.392 -3.392,-3.392l-343.556,-0c-1.847,0.02 -3.355,1.545 -3.355,3.392l-0,4.923c-0,7.823 6.437,14.26 14.26,14.26Z" style="fill:#757575;fill-rule:nonzero;stroke:#263238;stroke-width:3.65px;stroke-miterlimit:4;"/><path d="M2558.23,1584.66l264.56,-0c0.096,0.004 0.192,0.006 0.287,0.006c3.442,0 6.273,-2.831 6.273,-6.273c0,-0.749 -0.134,-1.493 -0.396,-2.195l-49.054,-190.852c-1.344,-4.789 -5.61,-8.216 -10.576,-8.498l-264.633,0c-0.083,-0.003 -0.165,-0.004 -0.248,-0.004c-3.461,-0 -6.309,2.848 -6.309,6.309c-0,0.749 0.133,1.491 0.393,2.193l49.09,190.852c1.342,4.8 5.635,8.223 10.613,8.462Z" style="fill:#999;fill-rule:nonzero;stroke:#263238;stroke-width:3.65px;stroke-miterlimit:4;"/><path d="M2514.02,1383.63l-4.996,-0" style="fill:none;fill-rule:nonzero;stroke:#263238;stroke-width:3.65px;stroke-miterlimit:4;"/><path d="M2552.79,1383.63l-25.821,-0" style="fill:none;fill-rule:nonzero;stroke:#263238;stroke-width:3.65px;stroke-miterlimit:4;"/><path d="M2816.37,1560.55l-43.327,-168.422c-1.33,-4.784 -5.583,-8.213 -10.54,-8.498l-203.873,-0" style="fill:none;fill-rule:nonzero;stroke:#263238;stroke-width:3.65px;stroke-miterlimit:4;"/><path d="M2820.12,1575.21l-1.094,-4.194" style="fill:none;fill-rule:nonzero;stroke:#263238;stroke-width:3.65px;stroke-miterlimit:4;"/><path d="M2637.77,1485.57c0.18,1.545 0.497,3.071 0.949,4.559c3.355,11.488 14.114,18.491 23.997,15.573c9.884,-2.918 15.172,-14.588 11.817,-26.077c-3.355,-11.488 -14.187,-18.49 -24.071,-15.573c-1.154,0.354 -2.267,0.831 -3.319,1.423c1.108,7.946 -2.573,15.838 -9.373,20.095Z" style="fill:#fff;fill-rule:nonzero;stroke:#263238;stroke-width:3.65px;stroke-miterlimit:4;"/><path d="M2754.55,1127.9c-22.904,-2.48 -35.377,-24.253 -49.163,-27.645c-7.691,-1.841 -15.227,-4.28 -22.539,-7.294c-7.311,-3.015 -4.741,-16.558 -11.853,-10.942c-7.112,5.617 -16.448,129.472 -7.294,125.57c9.154,-3.903 9.191,10.722 9.191,10.722l85.014,74.912l71.264,-126.19c-0,0 -51.716,-36.617 -74.62,-39.133Z" style="fill:#263238;fill-rule:nonzero;"/><path d="M2061.78,686.855l0,-1.823l1.824,-0" style="fill:none;fill-rule:nonzero;stroke:#263238;stroke-width:3.65px;stroke-miterlimit:4;"/><path d="M2074.33,685.032l308.544,-0" style="fill:none;fill-rule:nonzero;stroke:#263238;stroke-width:3.65px;stroke-miterlimit:4;stroke-dasharray:3.57,10.7;"/><path d="M2388.2,685.032l1.823,-0l0,1.823" style="fill:none;fill-rule:nonzero;stroke:#263238;stroke-width:3.65px;stroke-miterlimit:4;"/><path d="M2390.06,697.796l-0,198.767" style="fill:none;fill-rule:nonzero;stroke:#263238;stroke-width:3.65px;stroke-miterlimit:4;stroke-dasharray:3.65,10.94;"/><path d="M2390.02,902.033l0,1.824l-1.823,0" style="fill:none;fill-rule:nonzero;stroke:#263238;stroke-width:3.65px;stroke-miterlimit:4;"/><path d="M2377.51,903.857l-308.544,0" style="fill:none;fill-rule:nonzero;stroke:#263238;stroke-width:3.65px;stroke-miterlimit:4;stroke-dasharray:3.57,10.7;"/><path d="M2063.61,903.857l-1.824,0l0,-1.824" style="fill:none;fill-rule:nonzero;stroke:#263238;stroke-width:3.65px;stroke-miterlimit:4;"/><path d="M2061.82,891.092l-0,-198.766" style="fill:none;fill-rule:nonzero;stroke:#263238;stroke-width:3.65px;stroke-miterlimit:4;stroke-dasharray:3.65,10.94;"/><circle cx="2225.94" cy="685.032" r="5.398" style="fill:#34d399;stroke:#263238;stroke-width:3.65px;stroke-miterlimit:4;"/><circle cx="2061.82" cy="794.444" r="5.398" style="fill:#34d399;stroke:#263238;stroke-width:3.65px;stroke-miterlimit:4;"/><circle cx="2225.94" cy="903.857" r="5.398" style="fill:#34d399;stroke:#263238;stroke-width:3.65px;stroke-miterlimit:4;"/><circle cx="2390.06" cy="794.444" r="5.398" style="fill:#34d399;stroke:#263238;stroke-width:3.65px;stroke-miterlimit:4;"/><rect x="2383.75" y="897.584" width="12.582" height="12.582" style="fill:#34d399;stroke:#263238;stroke-width:3.65px;stroke-miterlimit:4;"/><rect x="2383.75" y="678.759" width="12.582" height="12.582" style="fill:#34d399;stroke:#263238;stroke-width:3.65px;stroke-miterlimit:4;"/><rect x="2055.51" y="897.584" width="12.582" height="12.582" style="fill:#34d399;stroke:#263238;stroke-width:3.65px;stroke-miterlimit:4;"/><rect x="2055.51" y="678.759" width="12.582" height="12.582" style="fill:#34d399;stroke:#263238;stroke-width:3.65px;stroke-miterlimit:4;"/><rect x="2083.59" y="704.398" width="285.677" height="181.516" style="fill:#fff;stroke:#263238;stroke-width:3.65px;stroke-miterlimit:4;"/><path d="M2369.27,832.301l-31.766,31.766l-85.925,-85.925l-36.143,36.142l-57.624,-57.624l-74.218,74.182l-0,55.071l285.676,0l0,-53.612Z" style="fill:#34d399;fill-rule:nonzero;stroke:#263238;stroke-width:3.65px;stroke-miterlimit:4;"/><circle cx="2310.08" cy="755.931" r="20.168" style="fill:#34d399;stroke:#263238;stroke-width:3.65px;stroke-miterlimit:4;"/><path d="M2769.76,1161.38c-0,0 -21.883,40.738 -24.472,103.067" style="fill:none;fill-rule:nonzero;stroke:#fff;stroke-width:3.65px;stroke-miterlimit:4;"/><path d="M2705.42,1189.57c-0,0 6.528,34.648 25.53,59.74" style="fill:none;fill-rule:nonzero;stroke:#fff;stroke-width:3.65px;stroke-miterlimit:4;"/><path d="M2795.29,1332.54c0,0 32.824,107.808 104.125,139.538" style="fill:none;fill-rule:nonzero;stroke:#fff;stroke-width:3.65px;stroke-miterlimit:4;"/><path d="M2881.65,1137.38c0,0 -3.1,23.524 -25.712,25.165c-2.786,-5.918 -6.145,-11.549 -10.029,-16.813c11.742,-3.474 23.676,-6.263 35.741,-8.352Z" style="fill:#263238;fill-rule:nonzero;"/><path d="M2929.83,1139.02c0,-0 37.821,4.631 53.649,-46.136c15.829,-50.768 3.392,-89.026 -59.192,-107.444c-34.72,-10.211 -69.295,-2.005 -81.95,24.29c-10.723,22.503 -5.653,41.212 -8.097,48.762c-2.772,8.461 -28.374,15.646 -28.374,21.445c-0,4.777 14.187,12.947 14.187,12.947l-4.158,12.619l3.903,2.079c-0,-0 -7.295,28.41 -3.903,38.44c2.407,7.294 66.487,10.358 71.483,-7.805" style="fill:#fff;fill-rule:nonzero;stroke:#263238;stroke-width:3.65px;stroke-miterlimit:4;"/><path d="M2842.7,1028.15c0,-0 12.51,3.136 15.938,9.701" style="fill:none;fill-rule:nonzero;stroke:#263238;stroke-width:3.65px;stroke-miterlimit:4;"/><path d="M2844.89,1057c-0.547,3.648 0.291,6.82 1.896,7.039c1.605,0.219 3.283,-2.553 3.83,-6.236c0.547,-3.684 -0.329,-6.82 -1.897,-7.039c-1.568,-0.219 -3.282,2.553 -3.829,6.236Z" style="fill:#263238;fill-rule:nonzero;"/><path d="M2819.8,1107.58c-0,-0 20.35,7.804 27.936,3.1" style="fill:none;fill-rule:nonzero;stroke:#263238;stroke-width:3.65px;stroke-miterlimit:4;"/><path d="M2826.94,1054.08c-1.495,8.169 0.328,15.318 4.085,16.01c3.756,0.693 8.06,-5.324 9.555,-13.457c1.495,-8.133 -0.292,-15.355 -4.085,-16.047c-3.793,-0.693 -8.023,5.361 -9.555,13.494Z" style="fill:none;fill-rule:nonzero;stroke:#263238;stroke-width:3.65px;stroke-miterlimit:4;"/><path d="M2985.16,1012.54c-3.045,-14.774 -11.537,-27.876 -23.779,-36.689c-13.65,-9.585 -29.281,-15.98 -45.735,-18.71c-16.454,-2.73 12.072,5.288 16.667,12.254c0,0 -31.255,-23.487 -68.383,-8.06c-37.127,15.427 -32.495,55.509 -32.495,55.509l5.398,-10.504c-0,0 -0.62,12.51 5.944,17.105c1.968,-6.128 4.648,-12.004 7.987,-17.506c3.34,-5.502 9.848,29.578 36.946,39.608c-1.841,-4.663 -1.996,-9.825 -0.438,-14.589c1.558,-4.764 15.026,32.496 10.649,48.361l4.778,8.315c0,-0 17.251,-17.47 31.292,-2.918c8.06,8.389 -15.427,40.118 -18.782,40.118l14.187,20.825c-0,0 35.45,5.07 55.873,-33.334c20.424,-38.404 15.427,-54.707 15.427,-54.707c0,0 6.675,9.337 7.295,14.589c0.073,-0.073 6.127,-41.322 -22.831,-59.667Z" style="fill:#263238;fill-rule:nonzero;"/><path d="M2901.75,1091.32c-0,-0 10.941,-36.763 34.21,-23.816c23.268,12.947 6.674,32.569 -1.678,40.118c-8.352,7.55 -14.588,21.263 -20.023,21.263c-5.434,-0 -6.637,-6.675 -6.637,-6.675" style="fill:#fff;fill-rule:nonzero;stroke:#263238;stroke-width:3.65px;stroke-miterlimit:4;"/><path d="M2840.58,1056.63l64.918,13.457" style="fill:none;fill-rule:nonzero;stroke:#263238;stroke-width:3.65px;stroke-miterlimit:4;"/></g><g><g><path d="M2872.98,2210.65l108.784,53.968" style="fill:none;stroke:#f3f3f3;stroke-width:18.75px;"/><path d="M2900.39,2292.03l53.968,-108.785" style="fill:none;stroke:#f3f3f3;stroke-width:18.75px;"/></g><g><path d="M2900.89,2193.92l108.784,53.968" style="fill:none;stroke:#95ffd0;stroke-width:18.75px;"/><path d="M2928.29,2275.3l53.968,-108.784" style="fill:none;stroke:#95ffd0;stroke-width:18.75px;"/></g></g><g><g><path d="M211.389,1715.5l108.785,53.968" style="fill:none;stroke:#f3f3f3;stroke-width:18.75px;"/><path d="M238.798,1796.88l53.968,-108.784" style="fill:none;stroke:#f3f3f3;stroke-width:18.75px;"/></g><g><path d="M239.297,1698.77l108.785,53.967" style="fill:none;stroke:#95ffd0;stroke-width:18.75px;"/><path d="M266.706,1780.15l53.967,-108.785" style="fill:none;stroke:#95ffd0;stroke-width:18.75px;"/></g></g><path d="M308.976,1822.39c223.347,646.313 1829.04,818.004 2416.21,15.918" style="fill:none;stroke:#f3f3f3;stroke-width:18.75px;stroke-dasharray:18.75,37.5,0,0;"/><path d="M326.286,1823.6c223.346,646.312 1812.63,782.155 2399.8,-19.93" style="fill:none;stroke:#cecece;stroke-width:18.75px;stroke-dasharray:18.75,37.5,0,0;"/><g><path d="M545.842,545.258c143.927,69.045 75.391,-80.603 198.762,-50.171" style="fill:none;stroke:#f3f3f3;stroke-width:18.75px;"/><path d="M538.108,499.788c143.927,69.045 75.391,-80.603 198.762,-50.171" style="fill:none;stroke:#95ffd0;stroke-width:18.75px;"/></g><g><path d="M1400.2,1994.34c44.224,153.384 110.335,2.649 169.705,114.995" style="fill:none;stroke:#f3f3f3;stroke-width:18.75px;"/><path d="M1429,1958.32c44.224,153.384 110.335,2.649 169.705,114.995" style="fill:none;stroke:#95ffd0;stroke-width:18.75px;"/></g></svg>